<?xml version="1.0" encoding="UTF-8" standalone="no"?>
<svg width="31px" height="28px" viewBox="0 0 31 28" version="1.1" xmlns="http://www.w3.org/2000/svg" xmlns:xlink="http://www.w3.org/1999/xlink">
    <!-- Generator: Sketch 3.7 (28169) - http://www.bohemiancoding.com/sketch -->
    <title>Group</title>
    <desc>Created with Sketch.</desc>
    <defs>
        <linearGradient x1="50%" y1="3.03730867%" x2="50%" y2="96.9148597%" id="linearGradient-1">
            <stop stop-color="#FFFFFF" offset="0%"></stop>
            <stop stop-color="#F2F2F2" offset="100%"></stop>
        </linearGradient>
        <rect id="path-2" x="0" y="0" width="30" height="28" rx="2"></rect>
        <filter x="-50%" y="-50%" width="200%" height="200%" filterUnits="objectBoundingBox" id="filter-3">
            <feOffset dx="-1" dy="0" in="SourceAlpha" result="shadowOffsetOuter1"></feOffset>
            <feColorMatrix values="0 0 0 0 0.721568627   0 0 0 0 0.721568627   0 0 0 0 0.721568627  0 0 0 0.5 0" type="matrix" in="shadowOffsetOuter1"></feColorMatrix>
        </filter>
    </defs>
    <g id="Page-1" stroke="none" stroke-width="1" fill="none" fill-rule="evenodd">
        <g id="创建活动页面" transform="translate(-900.000000, -230.000000)">
            <g id="info-+-img" transform="translate(160.000000, 179.000000)">
                <g id="info" transform="translate(526.000000, 0.000000)">
                    <g id="活动时间">
                        <g transform="translate(0.000000, 50.000000)">
                            <g id="time" transform="translate(66.000000, 0.000000)">
                                <g id="Group" transform="translate(149.000000, 1.000000)">
                                    <g id="btn">
                                        <use fill="black" fill-opacity="1" filter="url(#filter-3)" xlink:href="#path-2"></use>
                                        <use fill="url(#linearGradient-1)" fill-rule="evenodd" xlink:href="#path-2"></use>
                                    </g>
                                    <path d="M22.5,22 L8.5,22 C8.2235,22 8,21.775993 8,21.4999844 L8,6.49951561 C8,6.224007 8.2235,6 8.5,6 L21.5,6 L21.5,6 L22.5,6 C22.776,6 23,6.224007 23,6.49951561 L23,21.4999844 C23,21.775993 22.776,22 22.5,22 L22.5,22 Z M22,6.99953124 L9,6.99953124 L9,8.99959374 L22,8.99959374 L22,6.99953124 L22,6.99953124 Z M22,9.99962499 L9,9.99962499 L9,21.0004688 L22,21.0004688 L22,9.99962499 L22,9.99962499 Z M18,16.9998437 L20,16.9998437 L20,19.0004063 L18,19.0004063 L18,16.9998437 L18,16.9998437 Z M18,12.9997187 L20,12.9997187 L20,15.0002813 L18,15.0002813 L18,12.9997187 L18,12.9997187 Z M14.5,16.9998437 L16.5,16.9998437 L16.5,19.0004063 L14.5,19.0004063 L14.5,16.9998437 L14.5,16.9998437 Z M14.5,12.9997187 L16.5,12.9997187 L16.5,15.0002813 L14.5,15.0002813 L14.5,12.9997187 L14.5,12.9997187 Z M11,16.9998437 L13,16.9998437 L13,19.0004063 L11,19.0004063 L11,16.9998437 L11,16.9998437 Z M11,12.9997187 L13,12.9997187 L13,15.0002813 L11,15.0002813 L11,12.9997187 L11,12.9997187 Z" id="Shape" fill="#808080"></path>
                                </g>
                            </g>
                        </g>
                    </g>
                </g>
            </g>
        </g>
    </g>
</svg>